<mxfile host="app.diagrams.net" modified="2023-12-31T13:40:53.126Z" agent="Mozilla/5.0 (Windows NT 10.0; Win64; x64; rv:121.0) Gecko/20100101 Firefox/121.0" version="22.1.16" etag="Tm_okKerthMoufhc3w2s" type="github">
  <diagram name="Seite-1" id="gvWuyENX8MVMAKtwLVsr">
    <mxGraphModel>
      <root>
        <mxCell id="0" />
        <mxCell id="1" parent="0" />
      </root>
    </mxGraphModel>
  </diagram>
</mxfile>
